<?xml version="1.0" encoding="UTF-8" standalone="no"?> <svg xmlns="http://www.w3.org/2000/svg" xmlns:xlink="http://www.w3.org/1999/xlink" xmlns:serif="http://www.serif.com/" width="100%" height="100%" viewBox="0 0 1788 300" version="1.1" xml:space="preserve" style="fill-rule:evenodd;clip-rule:evenodd;stroke-linejoin:round;stroke-miterlimit:2;"><g><path d="M472.942,44.444c3.981,-0.398 7.017,0.149 9.107,1.642c2.09,1.493 3.135,3.832 3.135,7.017c0,6.171 -3.384,9.556 -10.152,10.153l-8.659,0.597c-11.347,0.796 -19.808,4.23 -25.382,10.302c-5.574,6.071 -8.858,15.179 -9.854,27.322l-0.597,8.361l32.548,-0c3.185,-0 5.624,0.846 7.316,2.538c1.692,1.692 2.538,3.932 2.538,6.719c-0,2.986 -0.896,5.374 -2.688,7.166c-1.791,1.792 -4.379,2.687 -7.763,2.687l-33.444,0l-9.257,116.157c-0.199,3.782 -1.493,6.669 -3.881,8.66c-2.389,1.99 -5.276,2.986 -8.66,2.986c-3.384,-0 -6.221,-0.996 -8.51,-2.986c-2.289,-1.991 -3.334,-4.878 -3.135,-8.66l9.256,-116.157l-20.006,0c-3.185,0 -5.624,-0.846 -7.316,-2.538c-1.692,-1.692 -2.538,-3.931 -2.538,-6.718c0,-2.986 0.896,-5.375 2.687,-7.167c1.792,-1.791 4.479,-2.687 8.063,-2.687l20.603,-0l0.299,-5.375c1.393,-19.31 7.067,-33.792 17.02,-43.447c9.954,-9.655 24.386,-15.079 43.298,-16.274l5.972,-0.298Z" style="fill:#7742e6;fill-rule:nonzero;"></path><path d="M502.503,256.751c-3.384,-0 -6.171,-0.996 -8.36,-2.986c-2.19,-1.991 -3.186,-4.977 -2.986,-8.959l15.228,-190.508c0.199,-3.783 1.593,-6.619 4.181,-8.51c2.588,-1.892 5.574,-2.837 8.958,-2.837c3.384,-0 6.121,0.945 8.211,2.837c2.091,1.891 3.036,4.727 2.837,8.51l-15.229,190.508c-0.199,3.982 -1.542,6.968 -4.031,8.959c-2.488,1.99 -5.424,2.986 -8.809,2.986Z" style="fill:#7742e6;fill-rule:nonzero;"></path><path d="M675.992,106.852c3.583,-0 6.42,1.045 8.51,3.135c2.09,2.09 2.936,5.027 2.538,8.809l-10.152,126.906c-0.199,3.384 -1.543,6.072 -4.032,8.063c-2.488,1.99 -5.424,2.986 -8.808,2.986c-3.385,-0 -6.072,-0.946 -8.063,-2.837c-1.99,-1.891 -2.886,-4.529 -2.687,-7.913l1.194,-14.333c-4.976,8.162 -11.645,14.482 -20.006,18.961c-8.361,4.479 -17.717,6.719 -28.069,6.719c-16.124,-0 -28.367,-4.23 -36.728,-12.691c-8.361,-8.46 -12.541,-20.852 -12.541,-37.176c-0,-3.583 0.099,-6.271 0.298,-8.062l6.271,-80.623c0.398,-3.782 1.841,-6.719 4.33,-8.809c2.488,-2.09 5.424,-3.135 8.809,-3.135c3.583,-0 6.42,1.045 8.51,3.135c2.09,2.09 2.936,5.027 2.538,8.809l-6.271,79.13c-0.199,1.393 -0.298,3.483 -0.298,6.27c-0,21.898 10.451,32.847 31.353,32.847c12.939,-0 23.291,-3.982 31.055,-11.944c7.763,-7.963 12.143,-19.011 13.138,-33.145l5.972,-73.158c0.398,-3.782 1.842,-6.719 4.33,-8.809c2.488,-2.09 5.425,-3.135 8.809,-3.135Z" style="fill:#7742e6;fill-rule:nonzero;"></path><path d="M739.594,186.28l0,1.195c0,15.925 3.932,28.267 11.795,37.026c7.863,8.759 19.26,13.139 34.19,13.139c15.726,-0 29.562,-4.38 41.506,-13.139c1.991,-1.393 3.981,-2.09 5.972,-2.09c2.389,0 4.33,0.896 5.823,2.688c1.493,1.791 2.239,3.881 2.239,6.27c0,3.584 -1.592,6.868 -4.777,9.854c-5.375,4.778 -12.89,8.66 -22.545,11.646c-9.655,2.986 -19.459,4.479 -29.412,4.479c-21.102,-0 -37.873,-6.37 -50.315,-19.111c-12.442,-12.74 -18.663,-29.86 -18.663,-51.36c0,-15.925 2.937,-29.959 8.809,-42.103c5.873,-12.143 14.234,-21.599 25.083,-28.367c10.849,-6.768 23.44,-10.152 37.773,-10.152c19.509,-0 34.439,5.822 44.791,17.468c10.351,11.645 15.527,28.517 15.527,50.613c-0,3.782 -0.995,6.719 -2.986,8.809c-1.991,2.09 -4.678,3.135 -8.062,3.135l-96.748,0Zm48.374,-61.213c-13.338,-0 -23.988,3.931 -31.951,11.794c-7.962,7.864 -13.039,19.161 -15.228,33.892l84.803,-0c0.597,-14.93 -2.439,-26.277 -9.108,-34.041c-6.668,-7.764 -16.174,-11.645 -28.516,-11.645Z" style="fill:#7742e6;fill-rule:nonzero;"></path><path d="M958.47,106.255c16.324,-0 28.766,4.28 37.326,12.84c8.559,8.56 12.839,21.001 12.839,37.325c0,3.583 -0.099,6.271 -0.298,8.062l-6.271,80.324c-0.398,3.982 -1.791,6.968 -4.18,8.959c-2.389,1.99 -5.276,2.986 -8.66,2.986c-3.782,-0 -6.718,-0.996 -8.809,-2.986c-2.09,-1.991 -2.936,-4.977 -2.538,-8.959l6.271,-78.831c0.199,-1.393 0.299,-3.483 0.299,-6.27c-0,-22.097 -10.651,-33.145 -31.951,-33.145c-13.537,-0 -24.286,4.031 -32.249,12.093c-7.963,8.062 -12.541,19.16 -13.736,33.294l-5.972,72.859c-0.199,3.982 -1.493,6.968 -3.882,8.959c-2.388,1.99 -5.375,2.986 -8.958,2.986c-3.583,-0 -6.42,-0.996 -8.51,-2.986c-2.09,-1.991 -3.036,-4.977 -2.837,-8.959l10.451,-126.607c0.2,-3.583 1.543,-6.37 4.032,-8.361c2.488,-1.991 5.424,-2.986 8.808,-2.986c3.385,-0 6.072,0.995 8.063,2.986c1.99,1.991 2.886,4.678 2.687,8.062l-1.194,14.333c4.976,-8.162 11.745,-14.532 20.305,-19.11c8.56,-4.579 18.214,-6.868 28.964,-6.868Z" style="fill:#7742e6;fill-rule:nonzero;"></path><path d="M1081.79,202.703c-0.199,1.394 -0.298,3.385 -0.298,5.972c-0,9.556 2.189,16.822 6.569,21.798c4.379,4.977 10.55,7.466 18.513,7.466c2.588,-0 5.076,-0.15 7.465,-0.448c2.389,-0.299 4.181,-0.448 5.375,-0.448c1.991,-0 3.633,0.796 4.927,2.389c1.294,1.592 1.941,3.782 1.941,6.569c0,4.18 -1.742,7.117 -5.226,8.809c-3.483,1.692 -9.605,2.538 -18.364,2.538c-14.333,-0 -25.48,-4.081 -33.443,-12.243c-7.963,-8.162 -11.944,-19.708 -11.944,-34.638c-0,-2.787 0.099,-4.977 0.298,-6.569l5.674,-74.95l-19.708,0c-3.185,0 -5.624,-0.846 -7.316,-2.538c-1.692,-1.692 -2.538,-3.931 -2.538,-6.718c0,-3.185 0.946,-5.624 2.837,-7.316c1.891,-1.692 4.529,-2.538 7.913,-2.538l20.305,-0l2.687,-34.041c0.398,-3.384 1.742,-6.121 4.031,-8.211c2.29,-2.091 5.226,-3.136 8.809,-3.136c3.782,0 6.719,1.095 8.809,3.285c2.09,2.19 2.936,5.076 2.538,8.659l-2.687,33.444l32.846,-0c2.986,-0 5.375,0.846 7.166,2.538c1.792,1.692 2.688,3.932 2.688,6.719c-0,3.185 -0.896,5.623 -2.688,7.315c-1.791,1.692 -4.379,2.538 -7.763,2.538l-33.742,0l-5.674,73.755Z" style="fill:#7742e6;fill-rule:nonzero;"></path><path d="M1263.34,257.945c-21.898,-0 -40.959,-4.479 -57.183,-13.437c-16.224,-8.958 -28.666,-21.599 -37.325,-37.923c-8.66,-16.323 -12.989,-35.235 -12.989,-56.734c-0,-21.5 4.329,-40.361 12.989,-56.586c8.659,-16.224 21.101,-28.815 37.325,-37.773c16.224,-8.958 35.285,-13.437 57.183,-13.437c13.736,0 27.023,2.09 39.863,6.271c12.84,4.18 23.341,9.754 31.503,16.721l-17.02,38.819c-17.319,-12.143 -35.037,-18.215 -53.152,-18.215c-17.12,0 -30.208,5.375 -39.266,16.125c-9.058,10.749 -13.587,26.774 -13.587,48.075c0,21.3 4.529,37.375 13.587,48.224c9.058,10.849 22.146,16.274 39.266,16.274c18.115,-0 35.833,-6.072 53.152,-18.215l17.02,38.819c-8.162,6.967 -18.663,12.541 -31.503,16.721c-12.84,4.181 -26.127,6.271 -39.863,6.271Z" style="fill:#441d99;fill-rule:nonzero;"></path><path d="M1552.99,255.258l-60.318,-0l-36.43,-67.186c-4.578,-7.764 -11.844,-11.646 -21.798,-11.646l-16.722,0l0,78.832l-54.047,-0l0,-210.516l100.331,0c25.481,0 44.641,5.525 57.481,16.573c12.84,11.048 19.26,27.023 19.26,47.926c-0,15.925 -4.38,29.412 -13.139,40.46c-8.759,11.049 -21.101,18.464 -37.026,22.246c12.143,2.588 21.798,10.451 28.964,23.59l33.444,59.721Zm-97.644,-120.039c12.144,0 20.853,-1.891 26.128,-5.673c5.276,-3.783 7.913,-9.954 7.913,-18.514c0,-8.759 -2.637,-15.079 -7.913,-18.961c-5.275,-3.882 -13.984,-5.823 -26.128,-5.823l-38.221,0l0,48.971l38.221,0Z" style="fill:#441d99;fill-rule:nonzero;"></path><path d="M1744.99,44.742l42.402,0l-0,210.516l-47.777,-0l0,-110.484l-40.61,75.547l-35.235,-0l-40.311,-73.755l-0.299,108.692l-47.776,-0l-0,-210.516l43.297,0l63.304,119.74l63.005,-119.74Z" style="fill:#441d99;fill-rule:nonzero;"></path></g><g><path d="M300,30c0,-16.557 -13.443,-30 -30,-30l-240,0c-16.557,0 -30,13.443 -30,30l0,240c0,16.557 13.443,30 30,30l240,0c16.557,0 30,-13.443 30,-30l0,-240Z" style="fill:#7742e6;"></path><g><path d="M250.955,71.122c0,-0 -129.408,34.674 -181.023,48.505c-12.32,3.301 -20.887,14.465 -20.887,27.22c-0,9.696 -0,18.989 -0,18.989c-0,0 103.954,-27.854 162.681,-43.59c23.139,-6.2 39.229,-27.169 39.229,-51.124c0,-0 0,-0 0,-0Z" style="fill:#fff;"></path><path d="M173.46,154.928c-0,0 -68.092,18.246 -103.528,27.741c-12.32,3.301 -20.887,14.465 -20.887,27.22c-0,9.696 -0,18.989 -0,18.989c-0,0 48.721,-13.054 85.185,-22.825c23.14,-6.2 39.23,-27.169 39.23,-51.124c-0,-0.001 -0,-0.001 -0,-0.001Z" style="fill:#fff;"></path></g></g></svg> 